<svg xmlns="http://www.w3.org/2000/svg" viewBox="0 0 22.85 21.87"><defs><style>.cls-1{fill:gray;}.cls-1,.cls-2{opacity:0.1;}.cls-3{fill:#2a3747;}.cls-4{fill:#75c;}.cls-5{fill:#fa4141;}.cls-6{fill:#ff9633;}</style></defs><title>ui_circle_heart</title><g id="Layer_2" data-name="Layer 2"><g id="Object"><circle class="cls-1" cx="10.94" cy="10.94" r="7.79"/><g class="cls-2"><path class="cls-3" d="M10.94,21.87A10.94,10.94,0,1,1,21.87,10.94,10.95,10.95,0,0,1,10.94,21.87Zm0-21.73a10.8,10.8,0,1,0,10.79,10.8A10.82,10.82,0,0,0,10.94.14Z"/></g><path class="cls-4" d="M16.73,20.67l-.52-.54a.32.32,0,1,1,.46-.44l.06.07.07-.07a.33.33,0,0,1,.45,0,.32.32,0,0,1,0,.45Z"/><path class="cls-5" d="M21.8,10.8l-.89-.92a.55.55,0,0,1,0-.77.54.54,0,0,1,.77,0l.11.11.12-.11a.53.53,0,0,1,.76,0,.55.55,0,0,1,0,.77Z"/><path class="cls-6" d="M3.45,14l-.89-.92a.54.54,0,0,1,0-.77.55.55,0,0,1,.77,0l.11.11.11-.11a.55.55,0,0,1,.77,0,.54.54,0,0,1,0,.77Z"/><path class="cls-5" d="M.88,7.38.35,6.83a.32.32,0,0,1,0-.46.33.33,0,0,1,.46,0l.07.07L1,6.37a.33.33,0,0,1,.47.46Z"/><path class="cls-6" d="M14.88,1.45,14.43,1a.28.28,0,0,1,0-.39.27.27,0,0,1,.38,0l.06.06.06-.06a.27.27,0,0,1,.38,0,.28.28,0,0,1,0,.39Z"/></g></g></svg>