<svg xmlns="http://www.w3.org/2000/svg" viewBox="0 0 209.28 164.7"><defs><style>.cls-1{fill:#8dc63f;}.cls-2{fill:#6da642;}</style></defs><title>Icon_main</title><g id="Layer_2" data-name="Layer 2"><g id="Layer_3" data-name="Layer 3"><path class="cls-1" d="M127.23,66.9A88.57,88.57,0,0,0,23.47,136.85c-.25,1.31-.47,2.64-.67,4,10.27-19.71,49.83-81.51,129.62-51,1.57.56,2.42.93,2.42.93-.81-.33-1.61-.63-2.42-.93-13.82-5-84-25-130.23,57.16,23.1,5.17,44.6-7.75,67.32-21.41,15.38-9.24,31.27-18.79,48-22.45,19-4.18,34.84-3.29,47.16,2.6A88.29,88.29,0,0,0,127.23,66.9Z"/><path class="cls-1" d="M18.19,142.26c-7-21.1-23.73-92.54,53.76-128.5,1.5-.73,2.36-1.09,2.36-1.09-.81.36-1.57.73-2.36,1.09C59.31,20,.53,53.69,19.39,136.29a2.23,2.23,0,0,0,0-.23A92.45,92.45,0,0,1,54.71,79.77c3.81-16.19,8-32.61,16.37-46C81.37,17.17,93,6.46,105.82,1.73A88.49,88.49,0,0,0,15.8,139C16.57,140.1,17.37,141.19,18.19,142.26Z"/><path class="cls-2" d="M143.14,112.34c-41.48,8.08-79.14,55.72-122,36.06,0,0,30.22,29,66.54,9.6,39.75-21.28,90.75-48.21,121.56-3.15C209.28,154.85,208.8,99.55,143.14,112.34Z"/></g></g></svg>